<?xml version="1.0" encoding="UTF-8"?> <svg xmlns="http://www.w3.org/2000/svg" width="234" height="100" viewBox="0 0 234 100" fill="none"> <path d="M114.125 2.28533C114.122 2.3322 114.116 2.36475 114.105 2.38298C114.098 2.39861 114.072 2.41033 114.027 2.41814C113.931 2.43897 113.867 2.40251 113.836 2.30876C113.724 1.96241 113.591 1.73195 113.438 1.61737C113.224 1.45851 112.85 1.37909 112.316 1.37909C112.1 1.37909 111.982 1.40253 111.961 1.4494C111.953 1.46502 111.949 1.48716 111.949 1.51581V5.41029C111.949 5.57695 111.988 5.69414 112.066 5.76185C112.145 5.82695 112.299 5.88684 112.531 5.94153C112.63 5.96236 112.686 5.97669 112.699 5.9845C112.736 6.00794 112.749 6.05742 112.738 6.13294C112.73 6.19283 112.702 6.22538 112.652 6.23059C112.647 6.23319 112.594 6.22929 112.492 6.21887C111.805 6.15898 111.237 6.15637 110.789 6.21106C110.682 6.22408 110.613 6.22408 110.582 6.21106C110.556 6.19804 110.539 6.16679 110.531 6.11731C110.51 6.03398 110.556 5.97799 110.668 5.94934C110.892 5.89205 111.043 5.82304 111.121 5.74232C111.21 5.65117 111.254 5.50404 111.254 5.30091V1.51581C111.254 1.44029 111.207 1.39602 111.113 1.38299C111.103 1.38039 111.026 1.37909 110.883 1.37909C110.388 1.37909 110.023 1.46502 109.789 1.6369C109.612 1.7645 109.454 1.99887 109.316 2.34001C109.272 2.44678 109.211 2.48194 109.133 2.44548C109.044 2.42465 109.012 2.37647 109.035 2.30095C109.126 2.01971 109.172 1.62257 109.172 1.10956C109.172 1.04967 109.251 1.02493 109.41 1.03534C109.973 1.0718 110.595 1.09003 111.277 1.09003C112.569 1.09003 113.406 1.06399 113.789 1.01191C113.935 0.991072 114.014 1.01451 114.027 1.08222C114.1 1.42857 114.133 1.8296 114.125 2.28533ZM120.93 6.07434C120.93 6.14205 120.92 6.18372 120.902 6.19934C120.887 6.21497 120.84 6.21887 120.762 6.21106C120.251 6.16679 119.737 6.15637 119.219 6.17981C119.117 6.18502 119.052 6.17981 119.023 6.16418C118.997 6.14596 118.984 6.10559 118.984 6.04309C118.984 5.95976 119.053 5.90898 119.191 5.89075C119.41 5.86211 119.519 5.74492 119.519 5.53919V4.00406C119.519 3.89208 119.506 3.81786 119.48 3.7814C119.454 3.74234 119.393 3.72281 119.297 3.72281H116.535C116.421 3.72281 116.349 3.73713 116.32 3.76578C116.294 3.79442 116.281 3.86864 116.281 3.98843V5.53919C116.281 5.68763 116.444 5.80481 116.769 5.89075C116.913 5.92981 116.984 5.98059 116.984 6.04309C116.984 6.1082 116.973 6.14856 116.949 6.16418C116.926 6.17981 116.861 6.18502 116.754 6.17981C116.236 6.15637 115.721 6.16679 115.211 6.21106C115.133 6.21887 115.085 6.21497 115.066 6.19934C115.051 6.18372 115.043 6.14205 115.043 6.07434C115.043 6.00663 115.099 5.96757 115.211 5.95716C115.466 5.93111 115.594 5.79179 115.594 5.53919V1.78924C115.594 1.54706 115.449 1.39471 115.16 1.33221C115.056 1.30878 114.993 1.29185 114.973 1.28143C114.954 1.26841 114.945 1.23977 114.945 1.1955C114.945 1.16164 114.948 1.1369 114.953 1.12128C114.969 1.0718 115.046 1.05097 115.184 1.05878C115.842 1.09524 116.374 1.09524 116.777 1.05878C116.85 1.05357 116.897 1.05878 116.918 1.0744C116.941 1.09003 116.953 1.13039 116.953 1.1955C116.953 1.24498 116.894 1.28274 116.777 1.30878C116.569 1.35305 116.444 1.3882 116.402 1.41424C116.322 1.46633 116.281 1.57179 116.281 1.73065V3.05094C116.281 3.23323 116.37 3.32438 116.547 3.32438H119.266C119.372 3.32438 119.439 3.31266 119.465 3.28922C119.501 3.25537 119.519 3.17073 119.519 3.03532V1.69158C119.519 1.55096 119.483 1.45721 119.41 1.41034C119.368 1.38169 119.259 1.35044 119.082 1.31659C118.936 1.28794 118.863 1.24237 118.863 1.17987C118.863 1.10956 118.876 1.06529 118.902 1.04706C118.928 1.02883 118.996 1.02493 119.105 1.03534C119.394 1.06399 119.691 1.0705 119.996 1.05487C120.212 1.04446 120.43 1.03274 120.648 1.01972C120.721 1.01972 120.767 1.02623 120.785 1.03925C120.806 1.05227 120.816 1.09394 120.816 1.16425C120.816 1.23195 120.76 1.27232 120.648 1.28534C120.362 1.31659 120.219 1.452 120.219 1.69158V5.53919C120.219 5.6668 120.264 5.76054 120.355 5.82044C120.428 5.86731 120.564 5.91289 120.762 5.95716C120.874 5.98059 120.93 6.01966 120.93 6.07434ZM125.828 5.20326C125.755 5.51315 125.707 5.82565 125.683 6.14075C125.681 6.19023 125.601 6.21106 125.445 6.20325C125.039 6.18241 124.521 6.172 123.89 6.172C123.198 6.172 122.601 6.18502 122.101 6.21106C121.989 6.21627 121.933 6.1707 121.933 6.07434C121.933 6.00663 121.989 5.96757 122.101 5.95716C122.258 5.93893 122.358 5.90898 122.402 5.86731C122.457 5.81523 122.484 5.70586 122.484 5.53919V1.94158C122.484 1.6994 122.462 1.54706 122.418 1.48456C122.374 1.41945 122.251 1.35565 122.051 1.29315C121.944 1.2593 121.905 1.1955 121.933 1.10175C121.947 1.05227 121.967 1.02493 121.996 1.01972C122.022 1.01191 122.091 1.01711 122.203 1.03534C122.37 1.06138 122.805 1.0744 123.508 1.0744C124.208 1.0744 124.811 1.05878 125.316 1.02753C125.486 1.01711 125.57 1.02883 125.57 1.06269C125.57 1.07571 125.568 1.08873 125.562 1.10175C125.508 1.35695 125.484 1.64992 125.492 1.98064C125.495 2.06137 125.457 2.10174 125.379 2.10174C125.306 2.10174 125.255 2.06658 125.226 1.99627C125.154 1.81398 125.09 1.69028 125.035 1.62518C124.952 1.52622 124.832 1.46372 124.676 1.43768C124.551 1.41424 124.111 1.40253 123.355 1.40253C123.269 1.40253 123.215 1.41685 123.191 1.44549C123.178 1.46112 123.172 1.50018 123.172 1.56268V3.19547C123.172 3.26058 123.21 3.29313 123.285 3.29313C123.525 3.28792 123.868 3.27099 124.316 3.24235C124.394 3.23453 124.452 3.19677 124.488 3.12907C124.517 3.07698 124.547 2.96891 124.578 2.80485C124.601 2.69287 124.663 2.65251 124.762 2.68376C124.85 2.69938 124.888 2.73975 124.875 2.80485C124.802 3.15901 124.779 3.61995 124.805 4.18765C124.807 4.25015 124.764 4.28791 124.676 4.30093C124.598 4.31134 124.552 4.26838 124.539 4.17202C124.513 3.9715 124.479 3.84 124.437 3.7775C124.398 3.71239 124.323 3.67333 124.211 3.66031C123.997 3.63427 123.674 3.62125 123.242 3.62125C123.195 3.62125 123.172 3.63948 123.172 3.67593V5.37904C123.172 5.62122 123.312 5.76966 123.594 5.82435C123.664 5.83737 123.907 5.84388 124.324 5.84388C124.973 5.84388 125.377 5.61732 125.539 5.1642C125.578 5.05743 125.642 5.02227 125.73 5.05873C125.814 5.07956 125.846 5.12774 125.828 5.20326Z" fill="black"></path> <path d="M52.4863 38.2695C52.334 39.8281 52.082 41.0879 51.7305 42.0488C51.4961 42.6699 50.5938 43.2266 49.0234 43.7188C47.3125 44.2461 45.3438 44.5098 43.1172 44.5098C39.4375 44.5098 36.373 43.4141 33.9238 41.2227C31.4395 38.9961 30.1973 36.1426 30.1973 32.6621C30.1973 29.1113 31.4805 26.1582 34.0469 23.8027C36.5195 21.5293 39.5078 20.3926 43.0117 20.3926C45.4961 20.3926 47.582 20.6914 49.2695 21.2891C50.7695 21.8164 51.5488 22.3086 51.6074 22.7656C51.7363 23.6562 51.8008 25.1035 51.8008 27.1074C51.8008 27.4355 51.502 27.6289 50.9043 27.6875C50.4473 27.7344 50.166 27.5938 50.0605 27.2656C49.4395 25.2617 48.6074 23.873 47.5645 23.0996C46.5332 22.3262 44.9805 21.9395 42.9062 21.9395C40.3047 21.9395 38.1836 22.8008 36.543 24.5234C34.7617 26.3984 33.8711 28.9648 33.8711 32.2227C33.8711 35.457 34.8086 38.0703 36.6836 40.0625C38.5117 42.0195 40.8496 42.998 43.6973 42.998C45.5488 42.998 47.0078 42.5996 48.0742 41.8027C49.0938 41.041 49.9258 39.793 50.5703 38.0586C50.7578 37.5547 51.1797 37.373 51.8359 37.5137C52.3047 37.6191 52.5215 37.8711 52.4863 38.2695ZM86.4346 32.416C86.4346 35.8027 85.1807 38.6738 82.6729 41.0293C80.212 43.3496 77.253 44.5098 73.7959 44.5098C70.1631 44.5098 67.1455 43.4199 64.7432 41.2402C62.2823 38.9902 61.0518 36.084 61.0518 32.5215C61.0518 29.0762 62.2998 26.1816 64.7959 23.8379C67.2569 21.541 70.2569 20.3926 73.7959 20.3926C77.4053 20.3926 80.4053 21.5117 82.7959 23.75C85.2217 26.0234 86.4346 28.9121 86.4346 32.416ZM82.8662 33.0137C82.8662 29.6035 81.9346 26.9082 80.0713 24.9277C78.2784 23.0293 75.9112 22.0801 72.9698 22.0801C70.5323 22.0801 68.5284 22.9824 66.958 24.7871C65.3995 26.5801 64.6202 28.918 64.6202 31.8008C64.6202 35.2578 65.5284 37.9766 67.3448 39.957C69.1143 41.8789 71.5166 42.8398 74.5518 42.8398C77.001 42.8398 78.9991 41.9375 80.5459 40.1328C82.0928 38.3281 82.8662 35.9551 82.8662 33.0137ZM112.35 39.6055C111.951 41.1055 111.752 42.5117 111.752 43.8242C111.752 44.0469 111.377 44.1406 110.627 44.1055C108.775 44.0117 106.484 43.9648 103.754 43.9648C100.848 43.9648 98.2579 44.0234 95.9845 44.1406C95.6446 44.1641 95.4337 44.1348 95.3516 44.0527C95.2696 43.9824 95.2286 43.8066 95.2286 43.5254C95.2286 43.2207 95.4805 43.0449 95.9845 42.998C97.1329 42.8809 97.7071 42.2656 97.7071 41.1523V24.9277C97.7071 24.1074 97.5958 23.498 97.3731 23.0996C97.1036 22.6309 96.588 22.2676 95.8262 22.0098C95.3692 21.8457 95.17 21.582 95.2286 21.2188C95.2637 20.9609 95.3399 20.8086 95.4571 20.7617C95.5743 20.7148 95.879 20.7207 96.3712 20.7793C98.0821 20.9668 100.121 20.9551 102.488 20.7441C102.91 20.709 103.15 20.6973 103.209 20.709C103.443 20.7441 103.578 20.9023 103.613 21.1836C103.649 21.5 103.572 21.7168 103.385 21.834C103.315 21.8809 103.074 21.9512 102.664 22.0449C101.844 22.2324 101.328 22.4492 101.117 22.6953C100.906 22.9297 100.801 23.4336 100.801 24.207V39.9395C100.801 40.9238 101.129 41.5977 101.785 41.9609C102.453 42.3125 103.66 42.4883 105.406 42.4883C107.07 42.4883 108.301 42.2773 109.098 41.8555C109.906 41.4219 110.563 40.6133 111.066 39.4297C111.254 38.9609 111.541 38.8027 111.928 38.9551C112.303 39.0488 112.443 39.2656 112.35 39.6055ZM129.142 21.2539C129.142 21.5469 128.825 21.7871 128.192 21.9746C126.775 22.3965 126.066 22.9473 126.066 23.627V40.7305C126.066 41.832 126.716 42.5 128.017 42.7344C128.661 42.8516 128.984 43.0801 128.984 43.4199C128.984 43.7129 128.925 43.8945 128.808 43.9648C128.702 44.0352 128.403 44.0586 127.911 44.0352C124.817 43.9062 122.427 43.9062 120.739 44.0352C120.306 44.0703 120.054 43.9883 119.984 43.7891C119.96 43.707 119.948 43.584 119.948 43.4199C119.948 43.1855 120.212 43.0098 120.739 42.8926C121.724 42.6699 122.292 42.5117 122.444 42.418C122.819 42.1836 123.007 41.7031 123.007 40.9766V23.7324C123.007 22.7598 122.351 22.1621 121.038 21.9395C120.487 21.8457 120.212 21.6758 120.212 21.4297C120.212 21.0898 120.253 20.8848 120.335 20.8145C120.429 20.7324 120.64 20.709 120.968 20.7441C123.253 20.9902 125.614 20.9668 128.052 20.6738C128.509 20.6152 128.778 20.5977 128.86 20.6211C129.048 20.6797 129.142 20.8906 129.142 21.2539ZM156.235 37.4785C156.235 39.7402 155.361 41.4395 153.615 42.5762C152.022 43.6191 149.795 44.1406 146.936 44.1406C146.619 44.1406 145.863 44.1055 144.668 44.0352C143.485 43.9648 142.524 43.9297 141.785 43.9297C140.59 43.9297 139.647 44 138.955 44.1406C138.522 44.2344 138.27 44.1172 138.199 43.7891C138.129 43.4961 138.381 43.2324 138.955 42.998C139.611 42.7168 140.039 42.4648 140.238 42.2422C140.531 41.9375 140.678 41.4453 140.678 40.7656V24.2773C140.678 23.1641 140.027 22.4785 138.727 22.2207C138.082 22.0918 137.76 21.8867 137.76 21.6055C137.76 21.2539 137.848 21.043 138.024 20.9727C138.141 20.9258 138.41 20.9316 138.832 20.9902C139.348 21.0605 140.192 21.0957 141.363 21.0957C142.008 21.0957 143.051 21.0781 144.492 21.043C145.945 21.0078 146.848 20.9902 147.199 20.9902C149.379 20.9902 151.096 21.4004 152.35 22.2207C153.756 23.1348 154.459 24.4883 154.459 26.2812C154.459 28.6719 153.006 30.3301 150.1 31.2559C149.772 31.3613 149.783 31.4434 150.135 31.502C154.201 32.2051 156.235 34.1973 156.235 37.4785ZM150.891 26.5801C150.891 25.0449 150.504 23.9375 149.731 23.2578C148.957 22.5664 147.715 22.2207 146.004 22.2207C144.645 22.2207 143.912 22.4199 143.807 22.8184C143.783 22.9121 143.772 23.0352 143.772 23.1875V30.8164H145.319C147.264 30.8164 148.676 30.4883 149.555 29.832C150.445 29.1758 150.891 28.0918 150.891 26.5801ZM152.631 37.8828C152.631 35.9375 151.981 34.4727 150.68 33.4883C149.567 32.6445 148.113 32.2227 146.32 32.2227C145.277 32.2227 144.428 32.2871 143.772 32.416V41.1172C143.772 42.2422 144.938 42.8047 147.27 42.8047C150.844 42.8047 152.631 41.1641 152.631 37.8828ZM185.736 44.0352C185.747 44.3047 185.519 44.4395 185.05 44.4395C180.843 44.4395 176.87 40.8359 173.132 33.6289C171.691 33.6992 170.923 33.7344 170.829 33.7344V41.1172C170.829 41.668 170.964 42.0371 171.234 42.2246C171.503 42.4004 172.101 42.5586 173.027 42.6992C173.671 42.8047 173.993 43.0332 173.993 43.3848C173.993 43.6777 173.941 43.8594 173.835 43.9297C173.73 44 173.437 44.0234 172.956 44C170.835 43.9062 168.521 43.9531 166.013 44.1406C165.509 44.1758 165.257 43.9707 165.257 43.5254C165.257 43.2207 165.509 43.0449 166.013 42.998C167.161 42.8809 167.736 42.2539 167.736 41.1172V24.2773C167.736 23.1641 167.085 22.4785 165.784 22.2207C165.14 22.0918 164.818 21.8867 164.818 21.6055C164.818 21.1719 165.034 20.9551 165.468 20.9551C165.597 20.9551 165.738 20.9668 165.89 20.9902C166.37 21.0605 167.103 21.0957 168.087 21.0957C168.415 21.0957 169.241 21.0781 170.566 21.043C171.89 21.0078 173.12 20.9902 174.257 20.9902C176.601 20.9902 178.452 21.4297 179.812 22.3086C181.335 23.2812 182.097 24.7168 182.097 26.6152C182.097 29.8613 180.222 32.0059 176.472 33.0488C177.667 35.7676 179.073 38.0996 180.691 40.0449C182.343 42.0371 183.831 43.1387 185.155 43.3496C185.519 43.4082 185.712 43.6367 185.736 44.0352ZM178.669 27.0371C178.669 25.3027 178.224 24.0664 177.333 23.3281C176.443 22.5898 175.019 22.2207 173.062 22.2207C172.183 22.2207 171.591 22.3438 171.286 22.5898C170.982 22.8242 170.829 23.3398 170.829 24.1367V32.416C173.665 32.3223 175.704 31.8242 176.946 30.9219C178.095 30.0898 178.669 28.7949 178.669 27.0371ZM201.842 21.2539C201.842 21.5469 201.526 21.7871 200.893 21.9746C199.475 22.3965 198.766 22.9473 198.766 23.627V40.7305C198.766 41.832 199.416 42.5 200.717 42.7344C201.362 42.8516 201.684 43.0801 201.684 43.4199C201.684 43.7129 201.625 43.8945 201.508 43.9648C201.403 44.0352 201.104 44.0586 200.612 44.0352C197.518 43.9062 195.127 43.9062 193.44 44.0352C193.006 44.0703 192.754 43.9883 192.684 43.7891C192.66 43.707 192.649 43.584 192.649 43.4199C192.649 43.1855 192.912 43.0098 193.44 42.8926C194.424 42.6699 194.992 42.5117 195.145 42.418C195.52 42.1836 195.707 41.7031 195.707 40.9766V23.7324C195.707 22.7598 195.051 22.1621 193.739 21.9395C193.188 21.8457 192.912 21.6758 192.912 21.4297C192.912 21.0898 192.953 20.8848 193.035 20.8145C193.129 20.7324 193.34 20.709 193.668 20.7441C195.953 20.9902 198.315 20.9668 200.752 20.6738C201.209 20.6152 201.479 20.5977 201.561 20.6211C201.748 20.6797 201.842 20.8906 201.842 21.2539Z" fill="black"></path> <path d="M90.8712 64.7244C90.8712 66.1213 90.332 67.1708 89.2536 67.8728C88.2693 68.517 86.8941 68.839 85.1282 68.839C84.9327 68.839 84.4659 68.8173 83.7277 68.7739C82.9967 68.7305 82.4032 68.7088 81.9472 68.7088C81.209 68.7088 80.6263 68.7522 80.1993 68.839C79.9315 68.897 79.7759 68.8246 79.7325 68.6219C79.6891 68.441 79.8447 68.2781 80.1993 68.1334C80.6046 67.9597 80.8688 67.8041 80.9918 67.6665C81.1728 67.4784 81.2632 67.1744 81.2632 66.7546V56.5712C81.2632 55.8836 80.8616 55.4602 80.0582 55.301C79.6601 55.2214 79.4611 55.0947 79.4611 54.921C79.4611 54.7039 79.5153 54.5736 79.6239 54.5302C79.6963 54.5012 79.8628 54.5049 80.1233 54.541C80.4418 54.5845 80.9629 54.6062 81.6866 54.6062C82.0847 54.6062 82.7289 54.5953 83.6191 54.5736C84.5166 54.5519 85.0739 54.541 85.291 54.541C86.6372 54.541 87.6975 54.7944 88.472 55.301C89.3405 55.8655 89.7747 56.7015 89.7747 57.8089C89.7747 59.2853 88.8773 60.3095 87.0823 60.8812C86.8797 60.9464 86.8869 60.997 87.104 61.0332C89.6155 61.4675 90.8712 62.6979 90.8712 64.7244ZM87.5709 57.9934C87.5709 57.0453 87.332 56.3613 86.8543 55.9415C86.3767 55.5145 85.6095 55.301 84.5528 55.301C83.7132 55.301 83.2608 55.424 83.1957 55.6701C83.1812 55.728 83.174 55.804 83.174 55.8981V60.6098H84.1294C85.3308 60.6098 86.2029 60.4072 86.7458 60.0019C87.2958 59.5966 87.5709 58.9271 87.5709 57.9934ZM88.6457 64.9741C88.6457 63.7727 88.244 62.868 87.4406 62.26C86.753 61.7389 85.8555 61.4783 84.7482 61.4783C84.104 61.4783 83.5793 61.5182 83.174 61.5978V66.9717C83.174 67.6665 83.8941 68.014 85.3344 68.014C87.5419 68.014 88.6457 67.0007 88.6457 64.9741ZM109.62 54.8342C109.62 54.9789 109.458 55.0911 109.132 55.1707C108.567 55.301 108.209 55.4313 108.057 55.5616C107.854 55.7425 107.753 56.079 107.753 56.5712V62.792C107.753 64.7823 107.236 66.3167 106.201 67.3951C105.137 68.5097 103.595 69.067 101.576 69.067C97.3055 69.067 95.1704 67.0586 95.1704 63.0417V56.5278C95.1704 55.8402 94.7687 55.424 93.9653 55.2793C93.6903 55.2286 93.5202 55.1816 93.4551 55.1382C93.3972 55.0947 93.3682 55.0079 93.3682 54.8776C93.3682 54.6532 93.4225 54.523 93.5311 54.4868C93.5817 54.4651 93.7518 54.4614 94.0413 54.4759C95.9883 54.5772 97.4756 54.5772 98.5034 54.4759C98.7205 54.4542 98.8508 54.4651 98.8942 54.5085C98.9449 54.5519 98.9702 54.6749 98.9702 54.8776C98.9702 55.0296 98.8146 55.1418 98.5034 55.2141C97.8954 55.3444 97.5444 55.4385 97.4503 55.4964C97.2187 55.6412 97.1029 55.9379 97.1029 56.3867V62.6617C97.1029 64.5073 97.4865 65.8608 98.2537 66.722C99.0208 67.5833 100.255 68.014 101.956 68.014C104.872 68.014 106.331 66.3348 106.331 62.9765V56.7232C106.331 56.231 106.204 55.8728 105.951 55.6484C105.748 55.4602 105.394 55.3227 104.887 55.2359C104.489 55.1635 104.29 55.0296 104.29 54.8342C104.29 54.6098 104.348 54.4795 104.464 54.4433C104.507 54.4289 104.677 54.4252 104.974 54.4325C106.986 54.5121 108.372 54.5121 109.132 54.4325C109.421 54.4035 109.581 54.4614 109.61 54.6062C109.617 54.6568 109.62 54.7328 109.62 54.8342ZM125.84 68.3722C125.84 68.5459 125.815 68.6545 125.764 68.6979C125.721 68.7413 125.605 68.7594 125.417 68.7522C123.542 68.6726 122.051 68.7088 120.944 68.8608C120.676 68.897 120.52 68.839 120.477 68.6871C120.433 68.5134 120.582 68.3505 120.922 68.1985C121.125 68.1117 121.226 67.9416 121.226 67.6883C121.226 67.4349 121.11 67.1889 120.879 66.95C119.865 65.9078 118.125 64.2106 115.657 61.8583V66.9717C115.657 67.3843 116.087 67.71 116.949 67.9488C117.332 68.0574 117.524 68.1985 117.524 68.3722C117.524 68.5532 117.491 68.6653 117.426 68.7088C117.361 68.7522 117.195 68.7667 116.927 68.7522C115.646 68.6943 114.231 68.7232 112.682 68.839C112.385 68.8608 112.237 68.7341 112.237 68.4591C112.237 68.2709 112.385 68.1623 112.682 68.1334C113.362 68.0538 113.702 67.6665 113.702 66.9717V56.5495C113.702 55.8764 113.322 55.453 112.563 55.2793C112.295 55.2141 112.132 55.1671 112.074 55.1382C112.016 55.102 111.987 55.0224 111.987 54.8993C111.987 54.7256 112.02 54.617 112.085 54.5736C112.15 54.523 112.335 54.5049 112.639 54.5193C114.455 54.6207 115.899 54.6207 116.97 54.5193C117.281 54.4904 117.437 54.617 117.437 54.8993C117.437 55.0368 117.281 55.1418 116.97 55.2141C116.413 55.3372 116.08 55.4385 115.971 55.5181C115.762 55.6629 115.657 55.9524 115.657 56.3867V61.1309C117.698 59.4228 119.344 58.0043 120.596 56.8752C120.965 56.5495 121.15 56.2419 121.15 55.9524C121.15 55.6629 120.951 55.4458 120.553 55.301C120.321 55.2214 120.198 55.1743 120.184 55.1599C120.075 55.0947 120.035 54.9862 120.064 54.8342C120.086 54.6677 120.129 54.57 120.195 54.541C120.267 54.5049 120.437 54.5121 120.705 54.5628C122.109 54.7075 123.397 54.722 124.57 54.6062C124.751 54.5917 124.867 54.6026 124.917 54.6388C124.968 54.6749 125.008 54.7763 125.037 54.9427C125.066 55.0875 125.047 55.1888 124.982 55.2467C124.917 55.2974 124.758 55.3589 124.505 55.4313C123.824 55.6412 122.967 56.1695 121.932 57.0163C121.164 57.6388 119.554 58.9777 117.101 61.0332C119.75 63.5592 121.827 65.4952 123.332 66.8415C123.991 67.4349 124.664 67.8258 125.351 68.014C125.677 68.108 125.84 68.2275 125.84 68.3722ZM138.933 66.0381C138.73 66.8994 138.596 67.7679 138.531 68.6436C138.524 68.7811 138.303 68.839 137.869 68.8173C136.74 68.7594 135.3 68.7305 133.548 68.7305C131.623 68.7305 129.965 68.7667 128.576 68.839C128.265 68.8535 128.109 68.7269 128.109 68.4591C128.109 68.2709 128.265 68.1623 128.576 68.1334C129.01 68.0827 129.289 67.9995 129.412 67.8837C129.564 67.7389 129.64 67.4349 129.64 66.9717V56.9729C129.64 56.2998 129.578 55.8764 129.455 55.7027C129.332 55.5217 128.992 55.3444 128.435 55.1707C128.138 55.0766 128.029 54.8993 128.109 54.6388C128.145 54.5012 128.203 54.4252 128.283 54.4108C128.355 54.3891 128.547 54.4035 128.858 54.4542C129.321 54.5266 130.53 54.5628 132.484 54.5628C134.431 54.5628 136.107 54.5193 137.511 54.4325C137.981 54.4035 138.216 54.4361 138.216 54.5302C138.216 54.5664 138.209 54.6026 138.195 54.6388C138.043 55.348 137.978 56.1623 137.999 57.0815C138.007 57.3058 137.902 57.418 137.684 57.418C137.482 57.418 137.341 57.3203 137.261 57.1249C137.058 56.6183 136.881 56.2745 136.729 56.0935C136.497 55.8185 136.165 55.6448 135.73 55.5724C135.383 55.5073 134.16 55.4747 132.061 55.4747C131.822 55.4747 131.67 55.5145 131.605 55.5941C131.569 55.6376 131.551 55.7461 131.551 55.9198V60.4578C131.551 60.6388 131.655 60.7292 131.865 60.7292C132.531 60.7148 133.487 60.6677 134.731 60.5881C134.949 60.5664 135.108 60.4615 135.209 60.2733C135.289 60.1285 135.372 59.8282 135.459 59.3722C135.524 59.061 135.694 58.9488 135.969 59.0356C136.215 59.0791 136.32 59.1912 136.284 59.3722C136.081 60.3565 136.016 61.6376 136.089 63.2154C136.096 63.3891 135.976 63.494 135.73 63.5302C135.513 63.5592 135.386 63.4398 135.35 63.172C135.278 62.6147 135.184 62.2492 135.068 62.0755C134.959 61.8945 134.75 61.7859 134.438 61.7498C133.845 61.6774 132.947 61.6412 131.746 61.6412C131.616 61.6412 131.551 61.6919 131.551 61.7932V66.5266C131.551 67.1997 131.941 67.6123 132.723 67.7643C132.918 67.8004 133.595 67.8185 134.753 67.8185C136.555 67.8185 137.681 67.1889 138.13 65.9295C138.238 65.6328 138.415 65.5351 138.662 65.6364C138.893 65.6943 138.984 65.8282 138.933 66.0381ZM155.391 57.9283C155.384 58.0586 155.366 58.149 155.337 58.1997C155.315 58.2431 155.243 58.2757 155.12 58.2974C154.852 58.3553 154.675 58.254 154.588 57.9934C154.277 57.0308 153.908 56.3903 153.481 56.0718C152.887 55.6303 151.849 55.4096 150.365 55.4096C149.764 55.4096 149.435 55.4747 149.377 55.605C149.355 55.6484 149.344 55.7099 149.344 55.7895V66.6135C149.344 67.0767 149.453 67.4024 149.67 67.5906C149.887 67.7715 150.318 67.938 150.962 68.09C151.237 68.1479 151.393 68.1877 151.429 68.2094C151.53 68.2745 151.566 68.412 151.537 68.6219C151.516 68.7884 151.436 68.8789 151.298 68.8933C151.284 68.9006 151.136 68.8897 150.853 68.8608C148.943 68.6943 147.365 68.6871 146.12 68.839C145.823 68.8752 145.631 68.8752 145.545 68.839C145.472 68.8029 145.425 68.716 145.403 68.5785C145.346 68.3469 145.472 68.1913 145.783 68.1117C146.406 67.9524 146.826 67.7606 147.043 67.5363C147.289 67.283 147.412 66.874 147.412 66.3095V55.7895C147.412 55.5797 147.282 55.4566 147.021 55.4204C146.992 55.4132 146.779 55.4096 146.38 55.4096C145.005 55.4096 143.992 55.6484 143.341 56.1261C142.849 56.4807 142.411 57.1321 142.027 58.0803C141.904 58.377 141.734 58.4747 141.517 58.3734C141.271 58.3155 141.18 58.1816 141.245 57.9717C141.499 57.19 141.625 56.0863 141.625 54.6605C141.625 54.494 141.846 54.4252 142.288 54.4542C143.851 54.5555 145.581 54.6062 147.477 54.6062C151.067 54.6062 153.394 54.5338 154.458 54.3891C154.863 54.3312 155.084 54.3963 155.12 54.5845C155.323 55.5471 155.413 56.6617 155.391 57.9283Z" fill="black"></path> <path d="M104.382 96.8419C104.382 96.907 104.368 96.9474 104.339 96.963C104.313 96.9786 104.244 96.9838 104.132 96.9786C103.453 96.95 102.925 96.95 102.55 96.9786C102.433 96.9864 102.374 96.9409 102.374 96.8419C102.374 96.7872 102.433 96.7482 102.55 96.7247C102.782 96.6727 102.921 96.6297 102.968 96.5958C103.025 96.5516 103.052 96.4526 103.046 96.299L102.91 92.9631C102.907 92.8954 102.889 92.8615 102.855 92.8615C102.829 92.8615 102.804 92.8849 102.781 92.9318C102.317 93.8641 101.992 94.5268 101.804 94.9201C101.427 95.7039 101.16 96.299 101.003 96.7052C100.933 96.8953 100.897 96.993 100.894 96.9982C100.868 97.045 100.83 97.0763 100.781 97.0919C100.755 97.0997 100.733 97.1036 100.714 97.1036C100.662 97.1036 100.615 97.0268 100.574 96.8732C100.41 96.2846 99.8445 94.9787 98.8784 92.9553C98.8498 92.8954 98.8185 92.8654 98.7846 92.8654C98.743 92.8654 98.7208 92.9058 98.7182 92.9865C98.6818 93.7599 98.6388 94.7899 98.5893 96.0763C98.5737 96.4201 98.7469 96.6245 99.1089 96.6896C99.2521 96.7156 99.3237 96.7664 99.3237 96.8419C99.3237 96.907 99.3094 96.9474 99.2807 96.963C99.2547 96.9786 99.187 96.9838 99.0776 96.9786C98.4787 96.9552 98.0138 96.9552 97.6831 96.9786C97.5659 96.9864 97.5073 96.9409 97.5073 96.8419C97.5073 96.7872 97.5659 96.7482 97.6831 96.7247C97.8914 96.6805 98.0281 96.6115 98.0932 96.5177C98.1453 96.4448 98.174 96.3133 98.1792 96.1232L98.3159 92.6662C98.3211 92.5152 98.2912 92.3993 98.2261 92.3185C98.1688 92.2482 98.0529 92.1727 97.8784 92.092C97.7534 92.0347 97.6948 91.9735 97.7026 91.9084C97.7078 91.8381 97.7638 91.8107 97.8706 91.8264C98.269 91.8836 98.618 91.8941 98.9175 91.8576C99.032 91.8446 99.1102 91.8472 99.1518 91.8654C99.1935 91.8836 99.23 91.9292 99.2612 92.0021L100.894 95.7404C100.915 95.7925 100.933 95.8185 100.949 95.8185C100.964 95.8185 100.988 95.7833 101.019 95.713C101.123 95.4891 101.705 94.2821 102.765 92.092C102.83 91.9592 102.912 91.8928 103.011 91.8928C103.253 91.8928 103.592 91.8576 104.027 91.7873C104.126 91.7717 104.187 91.7665 104.21 91.7717C104.255 91.7847 104.277 91.8329 104.277 91.9162C104.277 91.9787 104.208 92.0321 104.07 92.0764C103.744 92.1779 103.584 92.3003 103.589 92.4435L103.734 96.2443C103.739 96.3953 103.777 96.5021 103.847 96.5646C103.904 96.6193 104.01 96.6609 104.163 96.6896C104.309 96.7182 104.382 96.769 104.382 96.8419ZM110.972 94.3966C110.972 95.1492 110.693 95.7872 110.136 96.3107C109.589 96.8263 108.932 97.0841 108.163 97.0841C107.356 97.0841 106.686 96.8419 106.152 96.3576C105.605 95.8576 105.331 95.2117 105.331 94.4201C105.331 93.6545 105.609 93.0112 106.163 92.4904C106.71 91.98 107.377 91.7248 108.163 91.7248C108.966 91.7248 109.632 91.9735 110.163 92.4709C110.702 92.9761 110.972 93.618 110.972 94.3966ZM110.179 94.5294C110.179 93.7716 109.972 93.1727 109.558 92.7326C109.16 92.3107 108.633 92.0998 107.98 92.0998C107.438 92.0998 106.993 92.3003 106.644 92.7013C106.298 93.0998 106.124 93.6193 106.124 94.2599C106.124 95.0281 106.326 95.6323 106.73 96.0724C107.123 96.4995 107.657 96.713 108.331 96.713C108.876 96.713 109.32 96.5125 109.663 96.1115C110.007 95.7104 110.179 95.1831 110.179 94.5294ZM115.484 95.6115C115.484 96.0516 115.322 96.4044 114.999 96.67C114.663 96.9461 114.204 97.0841 113.62 97.0841C112.852 97.0841 112.402 96.9422 112.269 96.6583C112.188 96.4865 112.107 96.2677 112.027 96.0021C111.993 95.8797 112.018 95.8003 112.101 95.7638C112.205 95.7169 112.287 95.7378 112.347 95.8263C112.568 96.1544 112.791 96.3875 113.015 96.5255C113.231 96.6583 113.484 96.7247 113.773 96.7247C114.497 96.7247 114.859 96.4357 114.859 95.8576C114.859 95.631 114.779 95.4383 114.62 95.2794C114.467 95.131 114.149 94.9266 113.667 94.6662C113.058 94.338 112.657 94.0802 112.464 93.8927C112.227 93.661 112.109 93.3745 112.109 93.0334C112.109 92.6714 112.26 92.3628 112.562 92.1076C112.867 91.8524 113.255 91.7248 113.726 91.7248C114.059 91.7248 114.383 91.7665 114.699 91.8498C114.941 91.9149 115.077 91.9982 115.109 92.0998C115.174 92.3107 115.217 92.5711 115.238 92.881C115.243 92.993 115.205 93.0555 115.124 93.0685C115.023 93.0842 114.951 93.049 114.909 92.9631C114.748 92.6375 114.564 92.4084 114.359 92.2756C114.169 92.1532 113.92 92.092 113.613 92.092C113.339 92.092 113.123 92.1558 112.964 92.2834C112.805 92.411 112.726 92.592 112.726 92.8263C112.726 93.0451 112.804 93.2339 112.96 93.3927C113.109 93.5412 113.382 93.7157 113.781 93.9162C114.395 94.2235 114.818 94.4839 115.05 94.6974C115.339 94.9604 115.484 95.2651 115.484 95.6115ZM121.55 95.6974C121.516 96.0438 121.46 96.3237 121.382 96.5372C121.33 96.6753 121.129 96.799 120.78 96.9083C120.4 97.0255 119.963 97.0841 119.468 97.0841C118.65 97.0841 117.969 96.8406 117.425 96.3536C116.873 95.8589 116.597 95.2248 116.597 94.4513C116.597 93.6623 116.882 93.006 117.452 92.4826C118.002 91.9774 118.666 91.7248 119.445 91.7248C119.997 91.7248 120.46 91.7912 120.835 91.924C121.168 92.0412 121.342 92.1506 121.355 92.2521C121.383 92.45 121.398 92.7717 121.398 93.217C121.398 93.2899 121.331 93.3328 121.198 93.3459C121.097 93.3563 121.034 93.325 121.011 93.2521C120.873 92.8068 120.688 92.4982 120.456 92.3264C120.227 92.1545 119.882 92.0685 119.421 92.0685C118.843 92.0685 118.372 92.2599 118.007 92.6428C117.611 93.0594 117.413 93.6297 117.413 94.3537C117.413 95.0724 117.622 95.6531 118.038 96.0958C118.445 96.5307 118.964 96.7482 119.597 96.7482C120.008 96.7482 120.333 96.6596 120.57 96.4826C120.796 96.3133 120.981 96.0359 121.124 95.6505C121.166 95.5386 121.26 95.4982 121.405 95.5294C121.51 95.5529 121.558 95.6089 121.55 95.6974ZM128.214 94.3966C128.214 95.1492 127.935 95.7872 127.378 96.3107C126.831 96.8263 126.174 97.0841 125.405 97.0841C124.598 97.0841 123.928 96.8419 123.394 96.3576C122.847 95.8576 122.573 95.2117 122.573 94.4201C122.573 93.6545 122.851 93.0112 123.405 92.4904C123.952 91.98 124.619 91.7248 125.405 91.7248C126.207 91.7248 126.874 91.9735 127.405 92.4709C127.944 92.9761 128.214 93.618 128.214 94.3966ZM127.421 94.5294C127.421 93.7716 127.214 93.1727 126.8 92.7326C126.401 92.3107 125.875 92.0998 125.222 92.0998C124.68 92.0998 124.235 92.3003 123.886 92.7013C123.54 93.0998 123.366 93.6193 123.366 94.2599C123.366 95.0281 123.568 95.6323 123.972 96.0724C124.365 96.4995 124.899 96.713 125.573 96.713C126.118 96.713 126.562 96.5125 126.905 96.1115C127.249 95.7104 127.421 95.1831 127.421 94.5294ZM137.343 91.9943C137.343 92.0829 137.259 92.1519 137.093 92.2014C136.913 92.256 136.762 92.4357 136.64 92.7404C136.054 94.1831 135.509 95.5633 135.007 96.881C134.965 96.9904 134.869 97.0659 134.718 97.1075C134.71 97.1128 134.701 97.1154 134.69 97.1154C134.618 97.1154 134.565 97.0372 134.534 96.881C134.414 96.3133 133.98 95.1831 133.23 93.4904C132.904 94.3081 132.472 95.4383 131.933 96.881C131.894 96.9904 131.801 97.0659 131.655 97.1075C131.645 97.1101 131.634 97.1128 131.624 97.1154C131.551 97.1154 131.5 97.0372 131.472 96.881C131.373 96.3576 130.801 94.9318 129.757 92.6037C129.65 92.3641 129.467 92.2144 129.206 92.1545C129.079 92.1258 129.015 92.0881 129.015 92.0412C129.015 91.9318 129.071 91.8823 129.183 91.8928C129.586 91.9292 130.09 91.9019 130.694 91.8107C130.796 91.7951 130.86 91.7938 130.886 91.8068C130.909 91.8198 130.925 91.8589 130.933 91.924C130.946 91.9761 130.882 92.0373 130.741 92.1076C130.575 92.1909 130.491 92.286 130.491 92.3928C130.491 92.4396 130.503 92.4943 130.526 92.5568C130.787 93.2469 131.202 94.3446 131.773 95.8497C131.791 95.8992 131.815 95.924 131.847 95.924C131.875 95.924 131.899 95.8992 131.917 95.8497L132.999 92.9709C132.957 92.8849 132.899 92.7625 132.823 92.6037C132.73 92.4084 132.564 92.256 132.327 92.1467C132.207 92.092 132.151 92.0386 132.159 91.9865C132.172 91.8693 132.231 91.8185 132.335 91.8342C132.796 91.9097 133.313 91.9175 133.886 91.8576C133.99 91.8472 134.054 91.8498 134.077 91.8654C134.103 91.8784 134.116 91.9188 134.116 91.9865C134.116 92.0516 134.05 92.105 133.917 92.1467C133.662 92.2274 133.534 92.312 133.534 92.4006C133.534 92.4344 133.547 92.4865 133.573 92.5568L134.831 95.8497C134.849 95.9018 134.875 95.9279 134.909 95.9279C134.938 95.9279 134.963 95.9018 134.983 95.8497L136.151 92.7326C136.172 92.6701 136.183 92.6141 136.183 92.5646C136.183 92.3849 136.028 92.243 135.718 92.1389C135.601 92.0998 135.545 92.0412 135.55 91.9631C135.555 91.9058 135.569 91.8706 135.593 91.8576C135.621 91.8446 135.693 91.8446 135.808 91.8576C136.292 91.9149 136.748 91.9201 137.175 91.8732C137.287 91.8628 137.343 91.9032 137.343 91.9943Z" fill="black"></path> <path d="M8.24203 30.1898C8.24203 30.6911 8.11899 31.1149 7.8729 31.4613C7.62681 31.8031 7.29185 32.0947 6.86804 32.3363C6.54903 32.5185 6.17762 32.6803 5.7538 32.8216C5.33454 32.9583 4.87198 33.1019 4.36614 33.2522C3.9332 33.3798 3.51394 33.5394 3.10835 33.7308C2.70732 33.9176 2.37692 34.1455 2.11716 34.4143H7.56529L7.28502 35.6038H0.879883L1.10546 34.6741C1.24218 34.4918 1.40624 34.3141 1.59764 34.1409C1.78904 33.9677 2.01462 33.7991 2.27438 33.6351C2.50224 33.4938 2.75517 33.3548 3.03316 33.2181C3.3157 33.0814 3.62104 32.9492 3.94915 32.8216C4.37297 32.6575 4.7421 32.498 5.05655 32.3431C5.37555 32.1836 5.64443 32.0218 5.86317 31.8577C6.19585 31.6117 6.43055 31.3451 6.56726 31.058C6.70853 30.7663 6.77917 30.4268 6.77917 30.0394C6.77917 29.5883 6.65613 29.2328 6.41004 28.973C6.16395 28.7087 5.84495 28.5766 5.45303 28.5766C5.07478 28.5766 4.7535 28.6426 4.48918 28.7748C4.22486 28.907 4.0403 29.0482 3.93548 29.1986C3.93548 29.2533 3.93776 29.3308 3.94232 29.431C3.95143 29.5313 3.95599 29.6521 3.95599 29.7933C3.95599 30.2035 3.87624 30.5111 3.71674 30.7162C3.55723 30.9167 3.30203 31.0169 2.95113 31.0169C2.70048 31.0169 2.52503 30.96 2.42477 30.846C2.32907 30.7276 2.28122 30.584 2.28122 30.4154C2.28122 30.1465 2.36325 29.8754 2.52731 29.6019C2.69592 29.3239 2.9329 29.0665 3.23823 28.8295C3.53445 28.5971 3.88991 28.4102 4.30461 28.269C4.71932 28.1231 5.1682 28.0502 5.65126 28.0502C6.42599 28.0502 7.05032 28.2416 7.52427 28.6244C8.00278 29.0072 8.24203 29.529 8.24203 30.1898ZM16.944 30.8392C16.944 31.4909 16.8255 32.1198 16.5885 32.7259C16.3561 33.332 16.0371 33.8584 15.6315 34.305C15.2031 34.7744 14.7155 35.1458 14.1687 35.4192C13.6218 35.6881 12.9975 35.8225 12.2957 35.8225C11.3842 35.8225 10.671 35.5605 10.1561 35.0364C9.64109 34.5123 9.38361 33.8561 9.38361 33.0677C9.38361 32.3795 9.50209 31.7347 9.73907 31.1332C9.9806 30.527 10.3133 29.9916 10.7371 29.5267C11.1518 29.071 11.644 28.711 12.2136 28.4467C12.7878 28.1824 13.3939 28.0502 14.0319 28.0502C14.9662 28.0502 15.6839 28.3214 16.1852 28.8637C16.6911 29.4014 16.944 30.0599 16.944 30.8392ZM15.488 30.5316C15.488 29.8845 15.349 29.3946 15.071 29.0619C14.7976 28.7292 14.4193 28.5629 13.9362 28.5629C13.435 28.5629 12.9838 28.7178 12.5828 29.0277C12.1817 29.3331 11.8445 29.7614 11.5711 30.3129C11.3341 30.7914 11.1518 31.3063 11.0242 31.8577C10.9012 32.4092 10.8396 32.9105 10.8396 33.3616C10.8396 33.9723 10.9718 34.4508 11.2361 34.7971C11.5004 35.1389 11.8901 35.3098 12.405 35.3098C12.879 35.3098 13.3142 35.1708 13.7107 34.8928C14.1071 34.6103 14.4558 34.1682 14.7565 33.5667C15.0117 33.0608 15.1963 32.5368 15.3102 31.9945C15.4287 31.4522 15.488 30.9645 15.488 30.5316Z" fill="black"></path> <path d="M225.237 31.2354C225.237 31.887 225.119 32.516 224.882 33.1221C224.649 33.7282 224.33 34.2546 223.925 34.7012C223.496 35.1706 223.009 35.542 222.462 35.8154C221.915 36.0843 221.291 36.2188 220.589 36.2188C219.677 36.2188 218.964 35.9567 218.449 35.4326C217.934 34.9085 217.677 34.2523 217.677 33.4639C217.677 32.7757 217.795 32.1309 218.032 31.5293C218.274 30.9232 218.606 30.3877 219.03 29.9229C219.445 29.4671 219.937 29.1071 220.507 28.8428C221.081 28.5785 221.687 28.4463 222.325 28.4463C223.259 28.4463 223.977 28.7174 224.479 29.2598C224.984 29.7975 225.237 30.4561 225.237 31.2354ZM223.781 30.9277C223.781 30.2806 223.642 29.7907 223.364 29.458C223.091 29.1253 222.713 28.959 222.229 28.959C221.728 28.959 221.277 29.1139 220.876 29.4238C220.475 29.7292 220.138 30.1576 219.864 30.709C219.627 31.1875 219.445 31.7025 219.317 32.2539C219.194 32.8053 219.133 33.3066 219.133 33.7578C219.133 34.3685 219.265 34.847 219.529 35.1934C219.794 35.5352 220.183 35.7061 220.698 35.7061C221.172 35.7061 221.607 35.5671 222.004 35.2891C222.4 35.0065 222.749 34.5645 223.05 33.9629C223.305 33.457 223.49 32.9329 223.604 32.3906C223.722 31.8483 223.781 31.3607 223.781 30.9277ZM233.174 31.4473C233.174 32.3451 233.005 33.1995 232.668 34.0107C232.335 34.8219 231.873 35.542 231.28 36.1709C230.697 36.7907 229.988 37.3125 229.154 37.7363C228.325 38.1602 227.434 38.4245 226.481 38.5293V37.8662L227.124 37.8047C228.195 37.5039 229.075 37.0322 229.763 36.3896C230.455 35.7516 230.977 34.9404 231.328 33.9561C230.859 34.3024 230.414 34.5394 229.995 34.667C229.576 34.79 229.147 34.8516 228.71 34.8516C228.063 34.8516 227.521 34.6214 227.083 34.1611C226.646 33.6963 226.427 33.1016 226.427 32.377C226.427 31.8711 226.527 31.3835 226.728 30.9141C226.928 30.4447 227.206 30.0231 227.562 29.6494C227.903 29.2939 228.318 29.0046 228.806 28.7812C229.298 28.5534 229.813 28.4395 230.351 28.4395C231.194 28.4395 231.875 28.7083 232.395 29.2461C232.914 29.7839 233.174 30.5176 233.174 31.4473ZM231.759 31.1738C231.759 30.4857 231.618 29.9434 231.335 29.5469C231.052 29.1458 230.686 28.9453 230.234 28.9453C229.833 28.9453 229.485 29.0592 229.188 29.2871C228.892 29.515 228.644 29.7998 228.443 30.1416C228.247 30.4743 228.104 30.8366 228.013 31.2285C227.926 31.6204 227.883 31.9668 227.883 32.2676C227.883 32.8099 228.024 33.2497 228.307 33.5869C228.594 33.9242 228.972 34.0928 229.441 34.0928C229.792 34.0928 230.141 34.029 230.487 33.9014C230.834 33.7692 231.162 33.5596 231.472 33.2725C231.522 33.113 231.581 32.8623 231.649 32.5205C231.722 32.1787 231.759 31.7298 231.759 31.1738Z" fill="black"></path> <path fill-rule="evenodd" clip-rule="evenodd" d="M165.83 84.1C133.95 83.35 100.71 83.2 69.02 84.14C100.41 85.31 134.65 85.17 165.83 84.1Z" fill="black"></path> </svg> 